<svg width="512" height="512" viewBox="0 0 512 512" fill="none" xmlns="http://www.w3.org/2000/svg">
  <defs>
    <linearGradient id="bg" x1="72" y1="56" x2="436" y2="456" gradientUnits="userSpaceOnUse">
      <stop stop-color="#0B1512"/>
      <stop offset="1" stop-color="#0A1210"/>
    </linearGradient>
    <linearGradient id="accent" x1="156" y1="124" x2="360" y2="376" gradientUnits="userSpaceOnUse">
      <stop stop-color="#22C55E"/>
      <stop offset="1" stop-color="#16A34A"/>
    </linearGradient>
  </defs>

  <rect x="36" y="36" width="440" height="440" rx="104" fill="url(#bg)"/>
  <rect x="36" y="36" width="440" height="440" rx="104" stroke="#1F3A2E" stroke-width="2"/>

  <rect x="136" y="116" width="240" height="280" rx="34" fill="#0F1E18" stroke="#29543E" stroke-width="3"/>
  <path d="M298 116V182C298 193.046 306.954 202 318 202H376" stroke="#3F7B5A" stroke-width="3"/>

  <rect x="168" y="168" width="176" height="8" rx="4" fill="#2A4A3B"/>
  <rect x="168" y="198" width="142" height="8" rx="4" fill="#2A4A3B"/>
  <rect x="168" y="228" width="164" height="8" rx="4" fill="#2A4A3B"/>

  <path d="M188 292H320" stroke="url(#accent)" stroke-width="12" stroke-linecap="round"/>
  <path d="M188 332H286" stroke="#22C55E" stroke-opacity="0.45" stroke-width="10" stroke-linecap="round"/>
  <rect x="296" y="318" width="11" height="28" rx="5.5" fill="#22C55E"/>
</svg>
